<svg width="85" height="24" viewBox="0 0 85 24" fill="none" xmlns="http://www.w3.org/2000/svg">
<path d="M29.8263 15.864H28.3622C28.2799 15.864 28.201 15.8313 28.1428 15.773C28.0847 15.7147 28.052 15.6356 28.052 15.5532V13.2465C27.6237 13.382 27.177 13.4498 26.7279 13.4474C26.2415 13.452 25.7582 13.3712 25.2997 13.2086C24.8749 13.0563 24.4856 12.819 24.1553 12.511C23.8236 12.1916 23.5654 11.8035 23.3987 11.3738C23.2057 10.8835 23.1112 10.3598 23.1206 9.8328V8.506C23.1206 8.42355 23.1533 8.34449 23.2115 8.28619C23.2697 8.22789 23.3486 8.19514 23.4308 8.19514H24.8798C24.962 8.19514 25.041 8.22789 25.0991 8.28619C25.1573 8.34449 25.19 8.42355 25.19 8.506V9.69822C25.19 10.3161 25.3451 10.7767 25.6534 11.0762C25.8222 11.2303 26.0197 11.3493 26.2347 11.4264C26.4496 11.5036 26.6777 11.5372 26.9056 11.5254C27.0923 11.524 27.2785 11.5057 27.4618 11.4704C27.651 11.4344 27.859 11.3908 28.0652 11.3397V8.49652C28.0652 8.41408 28.0979 8.33501 28.1561 8.27672C28.2142 8.21842 28.2931 8.18567 28.3754 8.18567H29.8395C29.9218 8.18567 30.0007 8.21842 30.0589 8.27672C30.117 8.33501 30.1497 8.41408 30.1497 8.49652V15.5399C30.1516 15.583 30.1446 15.626 30.129 15.6662C30.1134 15.7063 30.0896 15.7428 30.0592 15.7733C30.0288 15.8038 29.9923 15.8276 29.9522 15.8432C29.9121 15.8588 29.8693 15.8659 29.8263 15.864Z" fill="#0F0F11"/>
<path d="M44.9976 8.02852C45.6213 8.00787 46.2398 8.14773 46.7941 8.43476C47.3485 8.72178 47.8202 9.1464 48.1641 9.66806C48.2088 9.73376 48.2268 9.81401 48.2145 9.89252C48.2022 9.97103 48.1605 10.0419 48.0979 10.0907L47.1143 10.8489C47.0506 10.8987 46.9699 10.9215 46.8895 10.9123C46.8092 10.9031 46.7358 10.8626 46.6849 10.7996C46.5152 10.5838 46.3166 10.3925 46.0948 10.231C45.7761 10.0152 45.3972 9.90632 45.0128 9.92015C44.7338 9.91638 44.4572 9.97195 44.2013 10.0832C43.9654 10.1873 43.7526 10.3375 43.5752 10.5248C43.3981 10.7157 43.2594 10.939 43.1666 11.1825C43.066 11.4469 43.016 11.7279 43.019 12.0108C43.0166 12.2962 43.0666 12.5795 43.1666 12.8467C43.258 13.0931 43.3968 13.3192 43.5752 13.512C43.7526 13.6993 43.9654 13.8494 44.2013 13.9536C44.4572 14.0648 44.7338 14.1204 45.0128 14.1166C45.397 14.1311 45.7759 14.023 46.0948 13.8077C46.3069 13.6514 46.4977 13.4678 46.6622 13.2618C46.7128 13.1987 46.786 13.1578 46.8662 13.1479C46.9464 13.138 47.0273 13.1598 47.0916 13.2087L48.0734 13.9669C48.1357 14.0145 48.1777 14.0839 48.191 14.1612C48.2044 14.2386 48.188 14.3181 48.1452 14.3839C47.845 14.8462 47.4448 15.2349 46.9743 15.5211C46.3742 15.878 45.6858 16.058 44.9882 16.0405C44.4345 16.0447 43.8855 15.9391 43.3728 15.7296C42.8868 15.5334 42.4435 15.2443 42.0676 14.8786C41.4976 14.309 41.11 13.5821 40.9543 12.7907C40.7986 11.9993 40.8819 11.1794 41.1936 10.4357C41.3983 9.96088 41.6954 9.53173 42.0676 9.17335C42.8556 8.42467 43.9023 8.01095 44.9882 8.01904L44.9976 8.02852Z" fill="#0F0F11"/>
<path d="M55.5589 9.94841H53.4441V15.5532C53.4436 15.6355 53.4108 15.7143 53.3527 15.7724C53.2946 15.8306 53.216 15.8635 53.1339 15.864H51.6831C51.6008 15.864 51.5219 15.8313 51.4637 15.773C51.4055 15.7147 51.3728 15.6356 51.3728 15.5532V9.94841H49.2732C49.2323 9.94866 49.1919 9.94079 49.1541 9.92526C49.1164 9.90973 49.0821 9.88685 49.0532 9.85793C49.0244 9.82902 49.0015 9.79465 48.986 9.75682C48.9705 9.71899 48.9627 9.67845 48.963 9.63756V8.50031C48.963 8.41786 48.9957 8.3388 49.0538 8.2805C49.112 8.2222 49.1909 8.18945 49.2732 8.18945H55.5589C55.6412 8.18945 55.7201 8.2222 55.7783 8.2805C55.8365 8.3388 55.8691 8.41786 55.8691 8.50031V9.63756C55.8694 9.67845 55.8615 9.71899 55.846 9.75682C55.8305 9.79465 55.8077 9.82902 55.7788 9.85793C55.75 9.88685 55.7157 9.90973 55.6779 9.92526C55.6402 9.94079 55.5997 9.94866 55.5589 9.94841Z" fill="#0F0F11"/>
<path d="M63.3473 15.8639H61.8964C61.8142 15.8639 61.7353 15.8312 61.6771 15.7729C61.6189 15.7146 61.5862 15.6355 61.5862 15.5531V13.9135H60.0881L58.4329 15.8639H56.7646C56.7059 15.8641 56.6485 15.8475 56.5989 15.8163C56.5492 15.7851 56.5094 15.7404 56.4841 15.6874C56.4588 15.6345 56.4489 15.5754 56.4557 15.5171C56.4625 15.4588 56.4856 15.4035 56.5224 15.3578L58.0943 13.4018C57.7166 13.169 57.4052 12.8426 57.1902 12.454C56.9616 12.0281 56.8469 11.5501 56.8572 11.0666C56.8503 10.6483 56.9349 10.2336 57.1051 9.85162C57.2613 9.50692 57.4904 9.20036 57.7766 8.95318C58.0751 8.70407 58.4186 8.51488 58.7885 8.39593C59.2033 8.2648 59.6362 8.20081 60.071 8.20639H63.3473C63.4292 8.20689 63.5076 8.23986 63.5654 8.2981C63.6232 8.35634 63.6556 8.43512 63.6556 8.51724V15.5606C63.6536 15.6414 63.6204 15.7183 63.5628 15.7749C63.5052 15.8315 63.4279 15.8634 63.3473 15.8639ZM60.2205 9.96535C59.9 9.95248 59.5845 10.0472 59.3239 10.2345C59.205 10.3291 59.1107 10.4511 59.0488 10.59C58.9869 10.7288 58.9593 10.8806 58.9682 11.0325C58.9603 11.1875 58.9884 11.3422 59.0501 11.4846C59.1118 11.627 59.2055 11.7531 59.3239 11.8532C59.5769 12.0583 59.8952 12.1653 60.2205 12.1546H61.5654V9.96535H60.2205Z" fill="#0F0F11"/>
<path d="M73.1721 8.30322L69.8164 12.0391L66.4778 8.30322C66.4484 8.27051 66.4125 8.24434 66.3724 8.22638C66.3324 8.20843 66.289 8.19909 66.2451 8.19898H65.8479C65.7656 8.19898 65.6867 8.23173 65.6285 8.29002C65.5703 8.34832 65.5377 8.42738 65.5377 8.50982V15.5532C65.5377 15.6357 65.5703 15.7147 65.6285 15.773C65.6867 15.8313 65.7656 15.8641 65.8479 15.8641H67.3119C67.3942 15.8641 67.4731 15.8313 67.5313 15.773C67.5895 15.7147 67.6221 15.6357 67.6221 15.5532V12.1945L69.37 14.1639C69.3988 14.1967 69.4343 14.223 69.4741 14.241C69.5139 14.259 69.5571 14.2682 69.6008 14.2681H70.0169C70.0609 14.2683 70.1043 14.259 70.1444 14.2411C70.1845 14.2231 70.2204 14.1968 70.2496 14.1639L72.0106 12.1794V15.5532C72.0111 15.6355 72.044 15.7143 72.102 15.7725C72.1601 15.8307 72.2387 15.8636 72.3208 15.8641H73.7717C73.8538 15.8636 73.9325 15.8307 73.9905 15.7725C74.0486 15.7143 74.0814 15.6355 74.0819 15.5532V8.50982C74.0814 8.42753 74.0486 8.34876 73.9905 8.29057C73.9325 8.23238 73.8538 8.19947 73.7717 8.19898H73.4028C73.3592 8.19888 73.316 8.20813 73.2762 8.2261C73.2364 8.24408 73.2009 8.27038 73.1721 8.30322Z" fill="#0F0F11"/>
<path d="M82.1993 8.28616L78.0473 12.2874V8.50982C78.0468 8.42753 78.014 8.34876 77.9559 8.29057C77.8978 8.23238 77.8192 8.19947 77.7371 8.19897H76.2711C76.1888 8.19897 76.1099 8.23173 76.0518 8.29002C75.9936 8.34832 75.9609 8.42738 75.9609 8.50982V15.5532C75.9609 15.6357 75.9936 15.7147 76.0518 15.773C76.1099 15.8313 76.1888 15.8641 76.2711 15.8641H76.7232C76.8036 15.8637 76.8807 15.8325 76.9388 15.7769L81.0757 11.7965V15.5589C81.0757 15.6414 81.1084 15.7204 81.1666 15.7787C81.2247 15.837 81.3036 15.8698 81.3859 15.8698H82.8349C82.9172 15.8698 82.9961 15.837 83.0543 15.7787C83.1124 15.7204 83.1451 15.6414 83.1451 15.5589V8.50982C83.1451 8.42738 83.1124 8.34832 83.0543 8.29002C82.9961 8.23173 82.9172 8.19897 82.8349 8.19897H82.4131C82.3333 8.19941 82.2567 8.23064 82.1993 8.28616Z" fill="#0F0F11"/>
<path fill-rule="evenodd" clip-rule="evenodd" d="M35.7435 8.00002C35.07 7.99808 34.4069 8.16648 33.8156 8.48961C33.2243 8.81274 32.7239 9.28016 32.3609 9.84857C31.9978 10.417 31.7837 11.068 31.7385 11.7414C31.6932 12.4147 31.8183 13.0886 32.1021 13.7007C32.3859 14.3127 32.8192 14.8431 33.3619 15.2427C33.9047 15.6423 34.5393 15.8983 35.207 15.9868C35.8746 16.0753 36.5538 15.9936 37.1816 15.7492C37.8094 15.5048 38.3655 15.1055 38.7984 14.5885C38.5482 15.0693 38.1722 15.4729 37.7107 15.7561V15.9627H39.4264C39.4672 15.963 39.5077 15.9551 39.5454 15.9396C39.5832 15.924 39.6175 15.9011 39.6463 15.8722C39.6752 15.8433 39.698 15.8089 39.7135 15.7711C39.729 15.7333 39.7368 15.6928 39.7366 15.6519V11.9899C39.7316 10.9313 39.3089 9.91763 38.5608 9.17014C37.8127 8.42265 36.8 8.00201 35.7435 8.00002ZM35.7435 13.9536C35.3601 13.9543 34.9851 13.8411 34.6659 13.6284C34.3466 13.4156 34.0975 13.1128 33.95 12.7582C33.8025 12.4036 33.7633 12.0131 33.8372 11.6361C33.9111 11.2592 34.0949 10.9126 34.3653 10.6403C34.6358 10.368 34.9808 10.1822 35.3566 10.1062C35.7324 10.0303 36.1222 10.0678 36.4768 10.2138C36.8314 10.3599 37.1349 10.608 37.3488 10.9269C37.5627 11.2457 37.6775 11.6209 37.6786 12.0051C37.6793 12.2603 37.6298 12.5133 37.533 12.7494C37.4361 12.9855 37.2937 13.2002 37.114 13.3812C36.9343 13.5621 36.7207 13.7058 36.4856 13.804C36.2504 13.9023 35.9983 13.9531 35.7435 13.9536Z" fill="#0F0F11"/>
<path d="M16.9297 7.54184L9.93081 11.1052V3.94053C9.93081 3.14445 9.30659 2.5 8.54995 2.5H1.38086C0.624222 2.5 0 3.14445 0 3.94053V15.1235C0 16.185 1.05929 16.8863 1.98616 16.4124L8.98502 12.849V20.0138C8.98502 20.8098 9.60924 21.4543 10.3659 21.4543H17.535C18.2916 21.4543 18.9158 20.8098 18.9158 20.0138V8.83073C18.9158 7.76929 17.8565 7.08693 16.9297 7.54184Z" fill="url(#paint0_linear_3573_38907)"/>
<defs>
<linearGradient id="paint0_linear_3573_38907" x1="-1.14047" y1="5.34108" x2="20.0804" y2="18.5745" gradientUnits="userSpaceOnUse">
<stop stop-color="#5F49FD"/>
<stop offset="0.15" stop-color="#A91DFD"/>
<stop offset="0.1565" stop-color="#AB24FD"/>
<stop offset="0.2231" stop-color="#BB6AFD"/>
<stop offset="0.2831" stop-color="#C8A1FD"/>
<stop offset="0.3344" stop-color="#D1C9FD"/>
<stop offset="0.3751" stop-color="#D7E1FD"/>
<stop offset="0.4" stop-color="#D9EAFD"/>
<stop offset="0.4206" stop-color="#DDE9F6"/>
<stop offset="0.4515" stop-color="#E7E7E1"/>
<stop offset="0.4886" stop-color="#F7E4C0"/>
<stop offset="0.5" stop-color="#FDE3B4"/>
<stop offset="0.5332" stop-color="#FDDFB1"/>
<stop offset="0.5677" stop-color="#FCD2A9"/>
<stop offset="0.6026" stop-color="#FBBE9B"/>
<stop offset="0.6378" stop-color="#F9A188"/>
<stop offset="0.65" stop-color="#F89580"/>
<stop offset="1" stop-color="#F24C4E"/>
</linearGradient>
</defs>
</svg>
