<svg width="216" height="31" viewBox="0 0 216 31" fill="none" xmlns="http://www.w3.org/2000/svg">
<g clip-path="url(#clip0_983_3823)">
<path fill-rule="evenodd" clip-rule="evenodd" d="M23.0199 19.4404C22.3283 19.4422 21.6516 19.252 21.0757 18.894C20.4996 18.5361 20.0502 18.0265 19.7843 17.4299C19.5183 16.833 19.4478 16.176 19.5816 15.5418C19.7155 14.9075 20.0476 14.3247 20.5361 13.867C21.0245 13.4093 21.6472 13.0973 22.3255 12.9706C23.0039 12.8438 23.7071 12.908 24.3462 13.155C24.9854 13.402 25.5319 13.8206 25.9164 14.358C26.3007 14.8954 26.506 15.5274 26.506 16.1738C26.5066 17.0388 26.1398 17.8687 25.4862 18.4813C24.8326 19.0937 23.9455 19.4388 23.0199 19.4404ZM23.0199 9.43483C21.807 9.43231 20.6129 9.71583 19.5483 10.2591C18.4837 10.8024 17.5829 11.5879 16.9294 12.543C16.2759 13.498 15.8907 14.5917 15.8096 15.7228C15.7283 16.8539 15.9538 17.986 16.465 19.014C16.9762 20.0421 17.7567 20.933 18.7341 21.6042C19.7115 22.2756 20.8544 22.7056 22.0568 22.8544C23.2593 23.0034 24.4825 22.8664 25.6133 22.4562C26.744 22.0459 27.7457 21.3756 28.5258 20.5075C28.0494 21.3352 27.3607 22.0289 26.563 22.4648V22.8127H30.2126V16.1388C30.204 14.3602 29.4427 12.6569 28.0951 11.4009C26.7475 10.1449 24.923 9.43811 23.0199 9.43483ZM57.627 19.506H52.8803V17.3189H57.5373C58.1194 17.3189 58.7988 17.8307 58.7988 18.4126C58.7988 18.8346 58.4457 19.5063 57.627 19.5063V19.506ZM52.8803 12.847L56.8671 12.8454C57.299 12.8454 58.0129 13.2624 58.0129 13.9295C58.0129 14.4618 57.5506 15.0344 56.7471 15.0344H52.8803V12.8472V12.847ZM60.8697 15.7707C61.7355 14.5408 61.8152 12.86 61.0242 11.6027C60.6325 10.9807 60.075 10.4643 59.4061 10.1038C58.7373 9.74323 57.9798 9.55089 57.2076 9.54553L49.2307 9.54475V22.8127L58.1562 22.8073C60.9561 22.8073 62.5189 20.6477 62.5189 18.8355C62.5189 17.0918 61.4578 16.2171 60.8697 15.7703V15.7707ZM45.6214 14.434C46.8191 17.4544 46.8804 20.1948 46.8804 22.8129H43.1754C43.1754 20.6892 43.0956 18.7554 42.6202 17.0072C41.9826 14.6637 40.7958 12.9602 39.6927 12.9601C38.5896 12.96 37.402 14.6637 36.7644 17.0072C36.2888 18.7554 36.21 20.6388 36.21 22.8129H32.505C32.505 20.4301 32.5655 17.4544 33.7632 14.434C34.8797 11.6201 36.9658 9.43507 39.6927 9.43507C42.4196 9.43507 44.5049 11.6201 45.6214 14.434ZM10.6796 9.54458H14.3853V10.9422C14.3864 11.9456 14.1476 12.9366 13.6862 13.8426C13.2248 14.7486 12.5527 15.5469 11.7188 16.1789C12.5527 16.8111 13.2248 17.6092 13.6862 18.5153C14.1476 19.4214 14.3864 20.4123 14.3853 21.4158V22.8133H10.6796V21.0657C10.6796 20.2015 10.3122 19.3727 9.6584 18.7616C9.00457 18.1505 8.11777 17.8072 7.19311 17.8072C6.26844 17.8072 5.38164 18.1505 4.72781 18.7616C4.07398 19.3727 3.70664 20.2015 3.70664 21.0657V22.8127H2.86991e-06V21.4151C-0.000919575 20.4116 0.238109 19.4206 0.699608 18.5146C1.16111 17.6086 1.83342 16.8104 2.66738 16.1784C1.83338 15.5464 1.16106 14.7481 0.699557 13.8421C0.238055 12.936 -0.000955361 11.945 2.86991e-06 10.9416V9.54436H3.70664V11.2914C3.70664 12.1556 4.07398 12.9844 4.72781 13.5954C5.38164 14.2065 6.26844 14.5498 7.19311 14.5498C8.11777 14.5498 9.00457 14.2065 9.6584 13.5954C10.3122 12.9844 10.6796 12.1556 10.6796 11.2914V9.54436V9.54458ZM71.1073 19.4407C70.4156 19.4423 69.739 19.2522 69.1631 18.8943C68.587 18.5364 68.1376 18.0268 67.8717 17.43C67.6057 16.8333 67.5352 16.1762 67.669 15.542C67.8029 14.9078 68.135 14.3249 68.6235 13.8671C69.1119 13.4095 69.7347 13.0975 70.4129 12.9708C71.0911 12.8441 71.7944 12.9083 72.4336 13.1552C73.0728 13.4022 73.6191 13.8209 74.0036 14.3583C74.3881 14.8957 74.5933 15.5275 74.5933 16.1741C74.5941 17.0391 74.2273 17.8691 73.5738 18.4817C72.9201 19.0941 72.0329 19.4391 71.1073 19.4407ZM78.2992 16.139C78.2892 14.5575 77.684 13.0297 76.5897 11.8233C75.4952 10.617 73.9815 9.80915 72.3137 9.54134C70.6459 9.27354 68.9305 9.56287 67.468 10.3587C66.0057 11.1544 64.8895 12.4059 64.3153 13.8936C63.7412 15.3814 63.7457 17.0105 64.3278 18.4956C64.91 19.9806 66.033 21.2267 67.4996 22.0156C68.9664 22.8044 70.6833 23.0856 72.3496 22.81C74.0161 22.5342 75.5253 21.7193 76.6132 20.5077C76.1368 21.3354 75.4481 22.0292 74.6504 22.4651V22.8129H78.3V16.1388H78.2992V16.139Z" fill="black"/>
<path d="M209.25 0H91.7998C88.0719 0 85.0498 3.01721 85.0498 6.73913V24.2609C85.0498 27.9828 88.0719 31 91.7998 31H209.25C212.978 31 216 27.9828 216 24.2609V6.73913C216 3.01721 212.978 0 209.25 0Z" fill="url(#paint0_linear_983_3823)"/>
<path d="M111.379 9.23799V21.5652H107.799V16.9826C106.759 17.5019 105.611 17.7616 104.357 17.7616C102.689 17.7616 101.427 17.3874 100.57 16.6389C99.7284 15.8751 99.3076 14.699 99.3076 13.1103V9.23799H102.888V12.8812C102.888 13.6296 103.079 14.172 103.462 14.508C103.859 14.844 104.425 15.0121 105.16 15.0121C106.093 15.0121 106.973 14.8135 107.799 14.4163V9.23799H111.379ZM119.614 9.05469C121.526 9.05469 122.995 9.51295 124.02 10.4295C125.045 11.3307 125.558 12.6979 125.558 14.5309V21.5652H122.207V20.03C121.534 21.1757 120.279 21.7485 118.443 21.7485C117.494 21.7485 116.668 21.5881 115.964 21.2673C115.276 20.9466 114.748 20.5035 114.381 19.9384C114.014 19.3732 113.83 18.7317 113.83 18.0137C113.83 16.868 114.258 15.9667 115.115 15.3099C115.987 14.6532 117.326 14.3247 119.132 14.3247H121.977C121.977 13.5456 121.74 12.9499 121.266 12.5375C120.792 12.1098 120.08 11.8959 119.132 11.8959C118.474 11.8959 117.823 12.0028 117.181 12.2167C116.553 12.4153 116.018 12.6902 115.574 13.0416L114.289 10.544C114.962 10.0705 115.766 9.70389 116.699 9.44421C117.648 9.18452 118.619 9.05469 119.614 9.05469ZM119.338 19.3426C119.95 19.3426 120.493 19.2052 120.968 18.9302C121.442 18.64 121.779 18.2199 121.977 17.67V16.4098H119.522C118.053 16.4098 117.319 16.8909 117.319 17.8533C117.319 18.3116 117.494 18.6782 117.846 18.9531C118.214 19.2128 118.711 19.3426 119.338 19.3426ZM134.543 21.7485C133.227 21.7485 132.041 21.4812 130.986 20.9466C129.945 20.3966 129.127 19.6405 128.53 18.6782C127.949 17.7158 127.658 16.6237 127.658 15.4016C127.658 14.1795 127.949 13.0874 128.53 12.125C129.127 11.1627 129.945 10.4142 130.986 9.87956C132.041 9.32964 133.227 9.05469 134.543 9.05469C135.844 9.05469 136.975 9.32964 137.939 9.87956C138.919 10.4142 139.631 11.1856 140.074 12.1938L137.297 13.6831C136.654 12.5527 135.729 11.9876 134.52 11.9876C133.587 11.9876 132.814 12.2931 132.202 12.9041C131.59 13.515 131.284 14.3476 131.284 15.4016C131.284 16.4556 131.59 17.2882 132.202 17.8991C132.814 18.5101 133.587 18.8156 134.52 18.8156C135.744 18.8156 136.67 18.2505 137.297 17.1201L140.074 18.6323C139.631 19.6099 138.919 20.3737 137.939 20.9236C136.975 21.4736 135.844 21.7485 134.543 21.7485ZM152.579 12.1709H148.402V21.5652H144.844V12.1709H140.668V9.23799H152.579V12.1709ZM165.344 9.23799V21.5652H162.154V18.0366H159.515L157.174 21.5652H153.364L156.187 17.5325C155.331 17.1965 154.672 16.7153 154.213 16.089C153.771 15.4474 153.548 14.6761 153.548 13.7748C153.548 12.3236 154.069 11.2085 155.109 10.4295C156.164 9.63516 157.61 9.23799 159.446 9.23799H165.344ZM159.515 12.1479C158.751 12.1479 158.169 12.2854 157.771 12.5604C157.389 12.8353 157.197 13.2783 157.197 13.8893C157.197 14.5003 157.381 14.951 157.748 15.2412C158.131 15.5162 158.705 15.6536 159.469 15.6536H162.154V12.1479H159.515ZM180.834 21.5652V14.1872L177.139 20.3737H175.624L172.021 14.1643V21.5652H168.785V9.23799H172.526L176.474 16.3639L180.673 9.23799H184.024L184.07 21.5652H180.834ZM187.499 9.23799H191.056V16.5702L197.069 9.23799H200.351V21.5652H196.794V14.233L190.804 21.5652H187.499V9.23799Z" fill="white"/>
</g>
<defs>
<linearGradient id="paint0_linear_983_3823" x1="85.0498" y1="26.9565" x2="258.521" y2="13.435" gradientUnits="userSpaceOnUse">
<stop stop-color="#526AD3" stop-opacity="0.911801"/>
<stop offset="0.399714" stop-color="#1102B9"/>
<stop offset="0.654665" stop-color="#EE3B14" stop-opacity="0.69"/>
<stop offset="0.772763" stop-color="#F9FE08"/>
</linearGradient>
<clipPath id="clip0_983_3823">
<rect width="216" height="31" fill="white"/>
</clipPath>
</defs>
</svg>
