<svg width="320" height="68" viewBox="0 0 320 68" fill="none" xmlns="http://www.w3.org/2000/svg">
<path d="M151.575 67C147.514 67 144.151 66.463 141.487 65.3891C138.885 64.3152 136.918 62.5779 135.586 60.1774C134.317 57.7768 133.682 54.555 133.682 50.512V27.2962H124V17.0623H133.682V0H145.294V17.0623H157V27.2962H145.294V48.9959C145.294 51.5228 145.738 53.4495 146.626 54.7761C147.514 56.1028 149.513 56.7661 152.622 56.7661H156.619V67H151.575Z" fill="#9A77FB"/>
<path d="M98.6912 68C93.6321 68 89.3134 66.9336 85.7351 64.8007C82.2184 62.6679 79.5346 59.7196 77.6838 55.9557C75.8946 52.1292 75 47.7066 75 42.6882C75 37.6697 75.9254 33.2472 77.7763 29.4207C79.6889 25.5314 82.4035 22.4889 85.9202 20.2934C89.4985 18.0978 93.7864 17 98.7837 17C102.485 17 105.725 17.69 108.501 19.0701C111.277 20.3875 113.591 22.2066 115.442 24.5277C117.354 26.8487 118.773 29.4834 119.699 32.4317C120.624 35.3801 121.056 38.4852 120.994 41.7472C120.933 42.5 120.871 43.2528 120.809 44.0055C120.747 44.6956 120.655 45.4483 120.532 46.2638H86.2903C86.4754 48.4594 87.0307 50.4668 87.9561 52.286C88.9432 54.1052 90.3006 55.548 92.028 56.6144C93.8172 57.6808 96.0383 58.214 98.6912 58.214C100.234 58.214 101.714 58.0258 103.133 57.6494C104.552 57.2103 105.786 56.583 106.835 55.7675C107.946 54.952 108.686 53.917 109.056 52.6624H120.346C119.544 56.238 118.064 59.155 115.904 61.4133C113.745 63.6716 111.154 65.334 108.131 66.4004C105.169 67.4668 102.023 68 98.6912 68ZM86.4754 37.7011H109.982C109.982 35.631 109.519 33.7491 108.593 32.0553C107.668 30.3616 106.341 29.0443 104.614 28.1033C102.948 27.0996 100.912 26.5978 98.5061 26.5978C95.9149 26.5978 93.7555 27.131 92.028 28.1974C90.3006 29.2638 88.9741 30.6439 88.0487 32.3376C87.1232 34.0314 86.5988 35.8192 86.4754 37.7011Z" fill="#30313D"/>
<path d="M0 67V17.7477H10.4615L11.2088 23.3551C12.4542 21.6729 13.793 20.3956 15.2253 19.5234C16.7198 18.5888 18.2454 17.9346 19.8022 17.5607C21.4212 17.1869 22.9469 17 24.3791 17C27.4927 17 30.1392 17.6231 32.3187 18.8692C34.5604 20.1153 36.304 21.9844 37.5494 24.4766C38.7949 22.7321 40.196 21.3302 41.7527 20.271C43.3095 19.1495 44.9597 18.3396 46.7033 17.8411C48.4469 17.2804 50.2839 17 52.2143 17C56.0128 17 59.0641 17.81 61.3681 19.4299C63.6722 20.9875 65.3535 23.1682 66.4121 25.972C67.4707 28.7134 68 31.8598 68 35.4112V67H56.6044V39.0561C56.6044 37.81 56.5421 36.5016 56.4176 35.1308C56.293 33.7601 55.9505 32.4829 55.3901 31.2991C54.8919 30.1153 54.1447 29.1495 53.1483 28.4019C52.152 27.6542 50.7509 27.2804 48.9451 27.2804C47.1392 27.2804 45.6447 27.6854 44.4615 28.4953C43.3407 29.243 42.4066 30.271 41.6593 31.5794C40.9744 32.8255 40.4762 34.2274 40.1648 35.785C39.9157 37.2804 39.7912 38.7757 39.7912 40.271V67H28.3956V38.9626C28.3956 37.7788 28.3022 36.5327 28.1154 35.2243C27.9908 33.8536 27.6795 32.5763 27.1813 31.3925C26.7454 30.1464 25.9982 29.1495 24.9396 28.4019C23.9432 27.6542 22.5421 27.2804 20.7363 27.2804C18.1209 27.2804 16.1282 27.9969 14.7582 29.4299C13.4505 30.8629 12.5476 32.6075 12.0495 34.6635C11.6136 36.7196 11.3956 38.6822 11.3956 40.5514V67H0Z" fill="#30313D"/>
<path d="M164 67V0H175.32V23.5021C176.619 21.7963 178.134 20.4064 179.866 19.3324C181.598 18.2584 183.423 17.5002 185.34 17.058C187.258 16.5526 189.082 16.2999 190.814 16.2999C195.454 16.2999 199.103 17.3423 201.763 19.4272C204.423 21.512 206.278 24.2918 207.33 27.7666C208.443 31.2414 209 35.1584 209 39.5177V67H197.68V41.5078C197.68 39.802 197.557 38.0646 197.309 36.2956C197.062 34.5266 196.567 32.9472 195.825 31.5573C195.144 30.1042 194.093 28.9354 192.67 28.0509C191.309 27.1664 189.485 26.7242 187.196 26.7242C185.031 26.7242 183.175 27.198 181.629 28.1457C180.082 29.0302 178.845 30.2621 177.918 31.8416C177.052 33.421 176.402 35.1584 175.969 37.0537C175.536 38.9491 175.32 40.8444 175.32 42.7397V67H164Z" fill="#9A77FB"/>
<path d="M240.642 68C235.543 68 231.137 66.9649 227.424 64.8948C223.773 62.8247 220.941 59.8764 218.927 56.0498C216.976 52.2232 216 47.738 216 42.5941C216 37.3875 217.007 32.9022 219.021 29.1384C221.035 25.3118 223.868 22.3321 227.518 20.1993C231.169 18.0664 235.543 17 240.642 17C245.677 17 250.02 18.0664 253.671 20.1993C257.321 22.3321 260.122 25.3432 262.073 29.2325C264.024 33.059 265 37.5756 265 42.7823C265 47.8635 264.024 52.3173 262.073 56.1439C260.185 59.9077 257.416 62.8247 253.765 64.8948C250.114 66.9649 245.74 68 240.642 68ZM240.547 57.5554C243.694 57.5554 246.212 56.8653 248.1 55.4852C250.051 54.1052 251.468 52.286 252.349 50.0277C253.23 47.7694 253.671 45.3229 253.671 42.6882C253.671 40.0535 253.23 37.5756 252.349 35.2546C251.468 32.9336 250.051 31.083 248.1 29.703C246.212 28.2601 243.694 27.5387 240.547 27.5387C237.4 27.5387 234.851 28.2601 232.9 29.703C230.949 31.083 229.532 32.9336 228.651 35.2546C227.77 37.5129 227.329 39.9908 227.329 42.6882C227.329 45.3229 227.77 47.8007 228.651 50.1218C229.595 52.3801 231.012 54.1993 232.9 55.5793C234.851 56.8967 237.4 57.5554 240.547 57.5554Z" fill="#9A77FB"/>
<path d="M293.692 68C288.769 68 284.708 66.8571 281.508 64.5714C278.308 62.2222 275.908 59.1111 274.308 55.2381C272.769 51.3651 272 47.0476 272 42.2857C272 37.3333 272.831 32.9206 274.492 29.0476C276.154 25.1111 278.646 22.0317 281.969 19.8095C285.292 17.5238 289.446 16.381 294.431 16.381C296.277 16.381 298.062 16.6032 299.785 17.0476C301.569 17.4286 303.231 18.0635 304.769 18.9524C306.369 19.7778 307.692 20.8889 308.738 22.2857V0H320V67.3333H309.108L308.923 61.0476C307.754 62.6349 306.369 63.9365 304.769 64.9524C303.231 65.9683 301.508 66.7302 299.6 67.2381C297.692 67.746 295.723 68 293.692 68ZM295.815 57.5238C298.769 57.5238 301.2 56.8254 303.108 55.4286C305.015 53.9682 306.431 52.0635 307.354 49.7143C308.338 47.3016 308.831 44.7619 308.831 42.0952C308.831 39.3016 308.338 36.7619 307.354 34.4762C306.431 32.1905 305.015 30.3492 303.108 28.9524C301.2 27.5556 298.769 26.8571 295.815 26.8571C292.677 26.8571 290.185 27.5873 288.338 29.0476C286.554 30.5079 285.231 32.4444 284.369 34.8571C283.569 37.2063 283.169 39.746 283.169 42.4762C283.169 44.5079 283.385 46.4444 283.815 48.2857C284.308 50.0635 285.046 51.6508 286.031 53.0476C287.015 54.4444 288.308 55.5556 289.908 56.381C291.508 57.1429 293.477 57.5238 295.815 57.5238Z" fill="#9A77FB"/>
</svg>
