<svg width="128" height="36" viewBox="0 0 128 36" fill="none" xmlns="http://www.w3.org/2000/svg">
<g clip-path="url(#clip0_1_143)">
<path d="M34.495 26.8492H27.1168C27.1168 24.2931 26.1208 21.8416 24.3479 20.0341C22.5751 18.2266 20.1706 17.2112 17.6634 17.2112C15.1562 17.2112 12.7517 18.2266 10.9788 20.0341C9.20595 21.8416 8.20997 24.2931 8.20997 26.8492H0.831711C0.831711 22.298 2.60504 17.9332 5.76159 14.715C8.91814 11.4968 13.1993 9.68884 17.6634 9.68884C22.1274 9.68884 26.4086 11.4968 29.5652 14.715C32.7217 17.9332 34.495 22.298 34.495 26.8492Z" fill="#6969FF"/>
<path d="M42.9109 11.3227H56.6299V26.8494H53.4019V14.2024H46.1158V26.8494H42.9109V11.3227ZM62.3019 18.7816C62.323 19.8585 62.2458 20.9351 62.0713 21.9974C61.9176 22.745 61.6871 23.2606 61.3796 23.5442C61.0198 23.8415 60.5647 23.9922 60.1023 23.9674H59.565V26.8494H60.6072C61.6832 26.8494 62.5655 26.6143 63.2542 26.1441C63.9428 25.674 64.4631 24.8606 64.8151 23.7041C65.1625 22.5397 65.3362 20.9373 65.3362 18.8968V14.1953H71.195V26.8423H74.4092V11.3274H62.3019V18.7816ZM92.6635 23.9979H93.3183V26.8494H91.6236C90.5338 26.8494 89.7906 26.6065 89.394 26.1206C89.0113 25.6182 88.8116 24.9958 88.8291 24.3599C88.411 25.0025 87.8876 25.5671 87.2819 26.029C86.4073 26.6966 85.2468 27.0304 83.8003 27.0304C82.7943 27.0499 81.7943 26.8695 80.8559 26.4991C80.0563 26.189 79.3635 25.6462 78.8638 24.9382C78.3764 24.2172 78.1262 23.357 78.149 22.4817C78.149 20.8848 78.7047 19.6569 79.8161 18.7981C80.9274 17.9393 82.5414 17.5099 84.6581 17.5099H88.4971V16.5696C88.5151 16.1824 88.4452 15.7962 88.2929 15.441C88.1405 15.0859 87.9097 14.7714 87.6186 14.5221C87.0329 14.0269 86.2152 13.7792 85.1653 13.7792C84.3434 13.7432 83.5297 13.9594 82.8296 14.3998C82.5464 14.5821 82.3035 14.8226 82.1165 15.1059C81.9295 15.3892 81.8025 15.7092 81.7436 16.0454H78.5963C78.6731 15.0909 79.0307 14.1822 79.6224 13.4384C80.2459 12.6902 81.0434 12.1131 81.9419 11.76C83.0173 11.3344 84.1642 11.1284 85.3175 11.1535C87.3388 11.1535 88.9052 11.633 90.0165 12.5921C91.1279 13.5512 91.6812 14.9476 91.6766 16.7811V22.9965C91.6766 23.382 91.755 23.6453 91.9072 23.7864C92.1257 23.9482 92.3945 24.0234 92.6635 23.9979ZM88.5132 19.9358H84.5151C83.5236 19.9358 82.7605 20.1278 82.2255 20.5118C81.6906 20.8957 81.4224 21.4818 81.4208 22.2701C81.4155 22.5775 81.4814 22.8819 81.6133 23.1584C81.7451 23.435 81.9391 23.6759 82.1794 23.8616C82.6867 24.2777 83.3738 24.4845 84.2546 24.4845C85.0436 24.5091 85.8261 24.3313 86.5303 23.9674C87.1347 23.6437 87.6391 23.1555 87.9875 22.5569C88.3433 21.9263 88.5235 21.2086 88.5086 20.4812L88.5132 19.9358ZM99.5806 22.0868V11.3227H96.4448V26.8494H99.2417L107.48 16.0524V26.8494H110.602V11.3345H107.777L99.5806 22.0868ZM103.475 9.68896C104.943 9.68896 106.088 9.3199 106.91 8.58176C107.733 7.84363 108.151 6.78736 108.165 5.41296H105.695C105.729 6.00584 105.549 6.5909 105.19 7.05848C104.851 7.46516 104.287 7.66497 103.493 7.66497C102.7 7.66497 102.17 7.46516 101.842 7.05848C101.496 6.58524 101.326 6.00229 101.361 5.41296H98.8843C98.9227 6.78736 99.3339 7.84363 100.118 8.58176C100.902 9.3199 102.017 9.68896 103.463 9.68896H103.475ZM113.62 11.3345V14.2141H118.796V26.8611H122.008V14.2141H127.185V11.3227L113.62 11.3345Z" fill="#020202"/>
</g>
<defs>
<clipPath id="clip0_1_143">
<rect width="128" height="36" fill="white"/>
</clipPath>
</defs>
</svg>
