<?xml version="1.0" encoding="UTF-8"?>
<svg xmlns="http://www.w3.org/2000/svg" xmlns:xlink="http://www.w3.org/1999/xlink" width="256px" height="72px" viewBox="0 0 256 72" version="1.1">
<g id="surface1">
<path style=" stroke:none;fill-rule:nonzero;fill:rgb(41.176471%,41.176471%,100%);fill-opacity:1;" d="M 68.988281 53.699219 L 54.234375 53.699219 C 54.234375 48.585938 52.242188 43.683594 48.695312 40.066406 C 45.148438 36.453125 40.339844 34.421875 35.328125 34.421875 C 30.3125 34.421875 25.503906 36.453125 21.957031 40.066406 C 18.410156 43.683594 16.421875 48.585938 16.421875 53.699219 L 1.664062 53.699219 C 1.664062 44.597656 5.210938 35.867188 11.523438 29.429688 C 17.835938 22.992188 26.398438 19.378906 35.328125 19.378906 C 44.253906 19.378906 52.816406 22.992188 59.128906 29.429688 C 65.445312 35.867188 68.988281 44.597656 68.988281 53.699219 Z M 68.988281 53.699219 "/>
<path style=" stroke:none;fill-rule:nonzero;fill:rgb(0.784314%,0.784314%,0.784314%);fill-opacity:1;" d="M 85.820312 22.644531 L 113.261719 22.644531 L 113.261719 53.699219 L 106.804688 53.699219 L 106.804688 28.40625 L 92.230469 28.40625 L 92.230469 53.699219 L 85.820312 53.699219 Z M 124.605469 37.5625 C 124.644531 39.71875 124.492188 41.871094 124.144531 43.996094 C 123.835938 45.488281 123.375 46.519531 122.757812 47.089844 C 122.039062 47.683594 121.128906 47.984375 120.203125 47.933594 L 119.128906 47.933594 L 119.128906 53.699219 L 121.214844 53.699219 C 123.367188 53.699219 125.132812 53.230469 126.507812 52.289062 C 127.886719 51.347656 128.925781 49.722656 129.628906 47.40625 C 130.324219 45.078125 130.671875 41.875 130.671875 37.792969 L 130.671875 28.390625 L 142.390625 28.390625 L 142.390625 53.683594 L 148.820312 53.683594 L 148.820312 22.65625 L 124.605469 22.65625 Z M 185.328125 47.996094 L 186.636719 47.996094 L 186.636719 53.699219 L 183.246094 53.699219 C 181.066406 53.699219 179.582031 53.214844 178.789062 52.242188 C 178.023438 51.238281 177.625 49.992188 177.65625 48.71875 C 176.820312 50.003906 175.773438 51.132812 174.5625 52.058594 C 172.816406 53.394531 170.492188 54.0625 167.601562 54.0625 C 165.589844 54.101562 163.589844 53.738281 161.710938 53 C 160.113281 52.378906 158.726562 51.292969 157.726562 49.875 C 156.753906 48.433594 156.253906 46.714844 156.296875 44.964844 C 156.296875 41.769531 157.410156 39.3125 159.632812 37.597656 C 161.855469 35.878906 165.082031 35.019531 169.316406 35.019531 L 176.996094 35.019531 L 176.996094 33.140625 C 177.03125 32.363281 176.890625 31.59375 176.585938 30.882812 C 176.28125 30.171875 175.820312 29.542969 175.238281 29.042969 C 174.066406 28.054688 172.429688 27.558594 170.332031 27.558594 C 168.6875 27.488281 167.058594 27.917969 165.660156 28.800781 C 165.09375 29.164062 164.605469 29.644531 164.234375 30.210938 C 163.859375 30.777344 163.605469 31.417969 163.488281 32.089844 L 157.191406 32.089844 C 157.347656 30.183594 158.0625 28.363281 159.246094 26.875 C 160.492188 25.378906 162.085938 24.226562 163.882812 23.519531 C 166.035156 22.667969 168.328125 22.257812 170.636719 22.308594 C 174.675781 22.308594 177.808594 23.265625 180.03125 25.183594 C 182.253906 27.101562 183.363281 29.894531 183.351562 33.5625 L 183.351562 45.992188 C 183.351562 46.765625 183.511719 47.289062 183.8125 47.574219 C 184.25 47.894531 184.789062 48.046875 185.328125 47.996094 Z M 177.027344 39.871094 L 169.03125 39.871094 C 167.046875 39.871094 165.519531 40.253906 164.449219 41.023438 C 163.382812 41.792969 162.84375 42.964844 162.839844 44.539062 C 162.832031 45.15625 162.960938 45.765625 163.226562 46.316406 C 163.488281 46.871094 163.878906 47.351562 164.359375 47.722656 C 165.375 48.554688 166.746094 48.96875 168.507812 48.96875 C 170.085938 49.019531 171.652344 48.664062 173.0625 47.933594 C 174.269531 47.289062 175.277344 46.3125 175.976562 45.113281 C 176.6875 43.851562 177.046875 42.417969 177.015625 40.960938 Z M 199.160156 44.171875 L 199.160156 22.644531 L 192.890625 22.644531 L 192.890625 53.699219 L 198.484375 53.699219 L 214.960938 32.105469 L 214.960938 53.699219 L 221.203125 53.699219 L 221.203125 22.667969 L 215.554688 22.667969 Z M 206.949219 19.378906 C 209.886719 19.378906 212.175781 18.640625 213.820312 17.164062 C 215.464844 15.6875 216.300781 13.574219 216.328125 10.824219 L 211.390625 10.824219 C 211.457031 12.011719 211.097656 13.183594 210.378906 14.117188 C 209.703125 14.929688 208.574219 15.328125 206.984375 15.328125 C 205.398438 15.328125 204.339844 14.929688 203.683594 14.117188 C 202.992188 13.171875 202.652344 12.003906 202.722656 10.824219 L 197.769531 10.824219 C 197.84375 13.574219 198.667969 15.6875 200.234375 17.164062 C 201.804688 18.640625 204.035156 19.378906 206.925781 19.378906 Z M 227.238281 22.667969 L 227.238281 28.429688 L 237.59375 28.429688 L 237.59375 53.722656 L 244.015625 53.722656 L 244.015625 28.429688 L 254.371094 28.429688 L 254.371094 22.644531 Z M 227.238281 22.667969 "/>
</g>
</svg>
