<svg width="256" height="256" viewBox="0 0 256 256" fill="none" xmlns="http://www.w3.org/2000/svg">
<rect width="256" height="256" fill="white"/>
<path d="M123.551 146.014C121.367 146.014 119.557 145.725 118.124 145.148C116.724 144.571 115.666 143.637 114.949 142.346C114.266 141.056 113.925 139.324 113.925 137.151V124.672H108.715V119.171H113.925V110H120.172V119.171H126.47V124.672H120.172V136.336C120.172 137.694 120.411 138.73 120.889 139.443C121.367 140.156 122.442 140.513 124.115 140.513H126.265V146.014H123.551Z" fill="#9A77FB"/>
<path d="M95.0982 146.551C92.3763 146.551 90.0528 145.978 88.1275 144.832C86.2355 143.685 84.7916 142.1 83.7957 140.077C82.8331 138.02 82.3518 135.643 82.3518 132.946C82.3518 130.248 82.8497 127.871 83.8455 125.814C84.8745 123.724 86.3351 122.088 88.2271 120.908C90.1524 119.728 92.4593 119.138 95.148 119.138C97.1396 119.138 98.8823 119.509 100.376 120.251C101.87 120.959 103.115 121.937 104.11 123.184C105.139 124.432 105.903 125.848 106.401 127.433C106.899 129.018 107.131 130.687 107.098 132.44C107.065 132.845 107.031 133.249 106.998 133.654C106.965 134.025 106.915 134.429 106.849 134.868H88.4263C88.5259 136.048 88.8246 137.127 89.3225 138.105C89.8536 139.083 90.5839 139.858 91.5133 140.431C92.4759 141.005 93.6709 141.291 95.0982 141.291C95.9281 141.291 96.7247 141.19 97.4882 140.988C98.2516 140.752 98.9155 140.415 99.4798 139.976C100.077 139.538 100.476 138.981 100.675 138.307H106.749C106.318 140.229 105.521 141.797 104.359 143.011C103.198 144.225 101.803 145.118 100.177 145.691C98.5836 146.265 96.8907 146.551 95.0982 146.551ZM88.5259 130.265H101.173C101.173 129.152 100.924 128.141 100.426 127.23C99.9279 126.32 99.2143 125.612 98.2848 125.106C97.3886 124.567 96.2932 124.297 94.9986 124.297C93.6045 124.297 92.4427 124.584 91.5133 125.157C90.5839 125.73 89.8702 126.472 89.3723 127.382C88.8744 128.293 88.5922 129.254 88.5259 130.265Z" fill="#30313D"/>
<path d="M42 146.014V119.54H47.6286L48.0306 122.554C48.7007 121.65 49.421 120.963 50.1916 120.494C50.9956 119.992 51.8165 119.64 52.6541 119.439C53.5251 119.238 54.346 119.138 55.1165 119.138C56.7917 119.138 58.2156 119.473 59.3882 120.143C60.5943 120.812 61.5324 121.817 62.2025 123.157C62.8726 122.219 63.6264 121.466 64.464 120.896C65.3016 120.293 66.1894 119.858 67.1275 119.59C68.0656 119.289 69.0539 119.138 70.0925 119.138C72.1362 119.138 73.7779 119.573 75.0175 120.444C76.2571 121.281 77.1617 122.453 77.7313 123.961C78.3008 125.434 78.5856 127.125 78.5856 129.034V146.014H72.4545V130.993C72.4545 130.324 72.421 129.62 72.354 128.884C72.287 128.147 72.1027 127.46 71.8012 126.824C71.5332 126.188 71.1311 125.669 70.5951 125.267C70.059 124.865 69.3052 124.664 68.3336 124.664C67.362 124.664 66.5579 124.882 65.9214 125.317C65.3183 125.719 64.8158 126.271 64.4137 126.975C64.0452 127.644 63.7772 128.398 63.6096 129.235C63.4756 130.039 63.4086 130.843 63.4086 131.647V146.014H57.2775V130.943C57.2775 130.307 57.2273 129.637 57.1267 128.934C57.0597 128.197 56.8922 127.51 56.6242 126.874C56.3897 126.204 55.9876 125.669 55.4181 125.267C54.882 124.865 54.1282 124.664 53.1566 124.664C51.7495 124.664 50.6774 125.049 49.9403 125.819C49.2367 126.59 48.7509 127.527 48.4829 128.632C48.2484 129.738 48.1311 130.793 48.1311 131.797V146.014H42Z" fill="#30313D"/>
<path d="M130.236 146.014V110H136.327V122.633C137.025 121.716 137.841 120.969 138.773 120.391C139.704 119.814 140.686 119.407 141.718 119.169C142.75 118.897 143.731 118.761 144.663 118.761C147.159 118.761 149.123 119.322 150.554 120.442C151.985 121.563 152.983 123.057 153.549 124.925C154.148 126.793 154.447 128.898 154.447 131.241V146.014H148.357V132.311C148.357 131.394 148.291 130.46 148.158 129.51C148.024 128.559 147.758 127.71 147.359 126.963C146.993 126.182 146.427 125.553 145.662 125.078C144.929 124.602 143.948 124.365 142.716 124.365C141.551 124.365 140.553 124.619 139.721 125.129C138.889 125.604 138.223 126.266 137.724 127.115C137.258 127.964 136.909 128.898 136.676 129.917C136.443 130.936 136.327 131.955 136.327 132.973V146.014H130.236Z" fill="#9A77FB"/>
<path d="M171.471 146.551C168.728 146.551 166.357 145.995 164.359 144.882C162.395 143.77 160.871 142.185 159.788 140.128C158.738 138.071 158.213 135.66 158.213 132.895C158.213 130.097 158.755 127.686 159.838 125.663C160.922 123.606 162.446 122.004 164.41 120.858C166.374 119.711 168.728 119.138 171.471 119.138C174.18 119.138 176.516 119.711 178.481 120.858C180.445 122.004 181.952 123.623 183.001 125.713C184.051 127.77 184.576 130.198 184.576 132.996C184.576 135.728 184.051 138.122 183.001 140.178C181.985 142.202 180.495 143.77 178.531 144.882C176.567 145.995 174.214 146.551 171.471 146.551ZM171.42 140.937C173.113 140.937 174.468 140.566 175.484 139.824C176.533 139.083 177.295 138.105 177.769 136.891C178.244 135.677 178.481 134.362 178.481 132.946C178.481 131.53 178.244 130.198 177.769 128.95C177.295 127.703 176.533 126.708 175.484 125.966C174.468 125.19 173.113 124.803 171.42 124.803C169.727 124.803 168.355 125.19 167.305 125.966C166.256 126.708 165.494 127.703 165.02 128.95C164.545 130.164 164.308 131.496 164.308 132.946C164.308 134.362 164.545 135.694 165.02 136.941C165.528 138.155 166.289 139.133 167.305 139.875C168.355 140.583 169.727 140.937 171.42 140.937Z" fill="#9A77FB"/>
<path d="M200.013 146.551C197.365 146.551 195.18 145.937 193.458 144.708C191.736 143.446 190.445 141.773 189.584 139.691C188.756 137.61 188.343 135.289 188.343 132.729C188.343 130.067 188.789 127.695 189.683 125.614C190.577 123.498 191.918 121.842 193.706 120.648C195.494 119.419 197.729 118.805 200.411 118.805C201.404 118.805 202.364 118.924 203.291 119.163C204.251 119.368 205.145 119.709 205.973 120.187C206.834 120.631 207.546 121.228 208.109 121.979V110H214.168V146.193H208.307L208.208 142.814C207.579 143.667 206.834 144.367 205.973 144.913C205.145 145.459 204.218 145.869 203.192 146.142C202.166 146.415 201.106 146.551 200.013 146.551ZM201.156 140.92C202.745 140.92 204.053 140.545 205.079 139.794C206.106 139.009 206.867 137.985 207.364 136.722C207.893 135.425 208.158 134.06 208.158 132.627C208.158 131.125 207.893 129.76 207.364 128.532C206.867 127.303 206.106 126.313 205.079 125.562C204.053 124.812 202.745 124.436 201.156 124.436C199.467 124.436 198.126 124.829 197.133 125.614C196.173 126.399 195.461 127.439 194.997 128.736C194.567 129.999 194.352 131.364 194.352 132.832C194.352 133.924 194.468 134.965 194.699 135.954C194.964 136.91 195.362 137.763 195.891 138.514C196.421 139.265 197.116 139.862 197.977 140.306C198.838 140.715 199.898 140.92 201.156 140.92Z" fill="#9A77FB"/>
</svg>
